<svg xmlns="http://www.w3.org/2000/svg" xmlns:xlink="http://www.w3.org/1999/xlink" width="1000" zoomAndPan="magnify" viewBox="0 0 750 749.999995" height="1000" preserveAspectRatio="xMidYMid meet" version="1.2"><defs><clipPath id="ce11774ae3"><path d="M 450 167.582031 L 674.992188 167.582031 L 674.992188 469 L 450 469 Z M 450 167.582031 "/></clipPath><clipPath id="2fce6f8911"><path d="M 482.625 268.898438 L 524.949219 268.898438 L 524.949219 358.765625 L 482.625 358.765625 Z M 482.625 268.898438 "/></clipPath><clipPath id="d9382a37c1"><path d="M 78.304688 134.875 L 301.804688 134.875 L 301.804688 430.375 L 78.304688 430.375 Z M 78.304688 134.875 "/></clipPath><clipPath id="ff84f7972f"><path d="M 152 319 L 376 319 L 376 617.046875 L 152 617.046875 Z M 152 319 "/></clipPath><clipPath id="96ca970faf"><path d="M 375 319 L 599.347656 319 L 599.347656 617.046875 L 375 617.046875 Z M 375 319 "/></clipPath><clipPath id="c70844d61c"><path d="M 225 241.707031 L 449.964844 241.707031 L 449.964844 544 L 225 544 Z M 225 241.707031 "/></clipPath></defs><g id="8e4aa4212e"><g clip-rule="nonzero" clip-path="url(#ce11774ae3)"><path style=" stroke:none;fill-rule:nonzero;fill:#f39c12;fill-opacity:1;" d="M 675.847656 167.722656 L 675.847656 468.722656 L 450.289062 468.722656 L 450.289062 393.472656 L 600.664062 393.472656 L 600.664062 355.847656 L 487.882812 355.847656 L 487.882812 280.597656 L 600.664062 280.597656 L 600.664062 242.972656 L 450.289062 242.972656 L 450.289062 167.722656 Z M 675.847656 167.722656 "/></g><g clip-rule="nonzero" clip-path="url(#2fce6f8911)"><path style=" stroke:none;fill-rule:nonzero;fill:#ffffff;fill-opacity:1;" d="M 482.625 268.898438 L 524.949219 268.898438 L 524.949219 358.839844 L 482.625 358.839844 Z M 482.625 268.898438 "/></g><g clip-rule="nonzero" clip-path="url(#d9382a37c1)"><path style=" stroke:none;fill-rule:nonzero;fill:#3498db;fill-opacity:1;" d="M 77.796875 133.046875 L 77.796875 430.546875 L 152.234375 430.546875 L 152.234375 318.984375 L 226.667969 318.984375 L 226.667969 430.546875 L 301.105469 430.546875 L 301.105469 133.046875 Z M 152.234375 244.609375 L 152.234375 207.421875 L 226.667969 207.421875 L 226.667969 244.609375 Z M 152.234375 244.609375 "/></g><g clip-rule="nonzero" clip-path="url(#ff84f7972f)"><path style=" stroke:none;fill-rule:nonzero;fill:#2ecc71;fill-opacity:1;" d="M 152.003906 617.613281 L 152.003906 319.113281 L 226.628906 319.113281 L 226.628906 542.988281 L 375.878906 542.988281 L 375.878906 617.613281 Z M 152.003906 617.613281 "/></g><g clip-rule="nonzero" clip-path="url(#96ca970faf)"><path style=" stroke:none;fill-rule:nonzero;fill:#e74c3c;fill-opacity:1;" d="M 525.125 617.613281 L 375.878906 617.613281 L 375.878906 542.988281 L 525.125 542.988281 L 525.125 468.363281 L 375.878906 468.363281 L 375.878906 319.113281 L 525.125 319.113281 L 525.125 393.738281 L 450.5 393.738281 L 450.5 468.363281 L 599.75 468.363281 L 599.75 617.613281 Z M 525.125 617.613281 "/></g><g clip-rule="nonzero" clip-path="url(#c70844d61c)"><path style=" stroke:none;fill-rule:nonzero;fill:#9b59b6;fill-opacity:1;" d="M 376.238281 241.84375 L 376.238281 468.34375 L 451.675781 468.34375 L 451.675781 543.84375 L 225.367188 543.84375 L 225.367188 468.34375 L 300.800781 468.34375 L 300.800781 241.84375 Z M 376.238281 241.84375 "/></g></g></svg>