<svg xmlns="http://www.w3.org/2000/svg" xmlns:xlink="http://www.w3.org/1999/xlink" width="1000" zoomAndPan="magnify" viewBox="0 0 750 337.499995" height="450" preserveAspectRatio="xMidYMid meet" version="1.2"><g id="dab9c02c8b"><path style=" stroke:none;fill-rule:nonzero;fill:#f39c12;fill-opacity:1;" d="M 446.769531 258.429688 L 446.769531 78.644531 L 581.605469 78.644531 L 581.605469 123.59375 L 491.714844 123.59375 L 491.714844 146.066406 L 559.132812 146.066406 L 559.132812 191.011719 L 491.714844 191.011719 L 491.714844 213.484375 L 581.605469 213.484375 L 581.605469 258.429688 Z M 446.769531 258.429688 "/><path style=" stroke:none;fill-rule:nonzero;fill:#3498db;fill-opacity:1;" d="M 43.734375 78.644531 L 43.734375 258.429688 L 88.683594 258.429688 L 88.683594 191.011719 L 133.628906 191.011719 L 133.628906 258.429688 L 178.574219 258.429688 L 178.574219 78.644531 Z M 88.683594 146.066406 L 88.683594 123.59375 L 133.628906 123.59375 L 133.628906 146.066406 Z M 88.683594 146.066406 "/><path style=" stroke:none;fill-rule:nonzero;fill:#2ecc71;fill-opacity:1;" d="M 177.269531 258.429688 L 177.269531 78.644531 L 222.214844 78.644531 L 222.214844 213.484375 L 312.109375 213.484375 L 312.109375 258.429688 Z M 177.269531 258.429688 "/><path style=" stroke:none;fill-rule:nonzero;fill:#e74c3c;fill-opacity:1;" d="M 402 258.429688 L 312.109375 258.429688 L 312.109375 213.484375 L 402 213.484375 L 402 168.539062 L 312.109375 168.539062 L 312.109375 78.644531 L 402 78.644531 L 402 123.59375 L 357.054688 123.59375 L 357.054688 168.539062 L 446.945312 168.539062 L 446.945312 258.429688 Z M 402 258.429688 "/><path style=" stroke:none;fill-rule:nonzero;fill:#9b59b6;fill-opacity:1;" d="M 623.375 258.429688 L 623.375 123.59375 L 578.425781 123.59375 L 578.425781 78.644531 L 713.265625 78.644531 L 713.265625 123.59375 L 668.320312 123.59375 L 668.320312 258.429688 Z M 623.375 258.429688 "/></g></svg>